<svg width="17" height="16" viewBox="0 0 17 16" fill="none" xmlns="http://www.w3.org/2000/svg">
<path d="M4.40133 7.33334H12.0993C12.674 7.33334 12.9793 6.65335 12.5973 6.22335L8.74866 1.89335C8.68624 1.82288 8.60957 1.76647 8.52372 1.72783C8.43787 1.6892 8.34481 1.66922 8.25067 1.66922C8.15653 1.66922 8.06346 1.6892 7.97761 1.72783C7.89176 1.76647 7.81509 1.82288 7.75266 1.89335L3.90266 6.22335C3.52067 6.65335 3.826 7.33334 4.40133 7.33334ZM7.752 14.106C7.81443 14.1765 7.8911 14.2329 7.97694 14.2715C8.06279 14.3102 8.15586 14.3301 8.25 14.3301C8.34414 14.3301 8.43721 14.3102 8.52305 14.2715C8.6089 14.2329 8.68557 14.1765 8.748 14.106L12.5967 9.77601C12.9793 9.34668 12.674 8.66668 12.0987 8.66668H4.40133C3.82667 8.66668 3.52133 9.34668 3.90333 9.77668L7.752 14.106Z" fill="#9E9E9E"/>
</svg>
